<?xml version="1.0" standalone="no"?>
<!DOCTYPE svg PUBLIC "-//W3C//DTD SVG 20010904//EN"
 "http://www.w3.org/TR/2001/REC-SVG-20010904/DTD/svg10.dtd">
<svg version="1.0" xmlns="http://www.w3.org/2000/svg"
 width="500.000000pt" height="500.000000pt" viewBox="0 0 500.000000 500.000000"
 preserveAspectRatio="xMidYMid meet">
<metadata>
Created by potrace 1.14, written by Peter Selinger 2001-2017
</metadata>
<g transform="translate(0.000000,500.000000) scale(0.100000,-0.100000)"
fill="#000000" stroke="none">
<path d="M2365 3300 c-217 -25 -375 -163 -375 -328 0 -22 -9 -45 -27 -66 -36
-43 -63 -104 -63 -147 0 -53 28 -125 120 -309 91 -183 103 -232 77 -327 -17
-63 -6 -59 31 10 25 50 27 58 24 180 -1 70 0 127 2 127 3 0 18 -13 34 -30 17
-17 37 -30 44 -30 8 0 27 -13 43 -30 32 -33 61 -38 91 -15 18 14 17 14 -14 15
-27 0 -36 6 -53 35 -11 19 -29 37 -39 40 -33 10 -62 71 -62 127 0 63 29 97 90
105 37 5 45 2 72 -27 16 -18 30 -38 30 -46 0 -8 7 -14 15 -14 17 0 20 41 5 70
-8 15 -3 21 38 38 26 11 74 28 107 38 33 10 64 21 68 24 4 4 0 34 -9 68 -9 33
-14 67 -11 76 3 8 23 24 43 34 l37 19 -49 11 c-97 23 -181 32 -288 32 -60 0
-107 2 -105 4 3 3 73 10 156 16 314 24 522 -33 548 -152 4 -18 20 -57 35 -88
40 -79 40 -82 12 -112 -24 -26 -25 -29 -11 -70 7 -23 30 -70 51 -104 21 -35
38 -67 38 -73 0 -12 -39 -35 -47 -27 -3 3 -21 -1 -40 -9 -29 -12 -35 -12 -39
0 -3 7 0 23 6 35 10 20 10 21 -8 11 -28 -15 -34 -38 -17 -71 13 -26 19 -28 50
-23 57 9 40 -13 -20 -26 -59 -13 -83 -35 -131 -117 -14 -24 -30 -44 -35 -44
-5 0 -9 26 -10 58 -1 56 -1 57 -14 27 l-14 -30 -1 31 c0 42 -13 55 -105 105
-73 39 -165 118 -165 140 0 5 -3 9 -7 9 -5 0 -8 -48 -9 -108 0 -70 -6 -126
-17 -161 -24 -78 -11 -121 60 -188 30 -29 81 -69 114 -89 45 -28 59 -42 59
-60 0 -13 -2 -24 -5 -24 -14 0 -121 53 -160 80 -25 17 -45 27 -45 23 0 -18
114 -134 159 -161 42 -26 48 -34 44 -56 -9 -43 4 -30 47 47 22 39 43 77 48 84
6 9 22 9 73 -1 64 -14 108 -19 140 -17 9 1 40 22 69 48 50 45 52 48 46 86 -4
22 -20 70 -36 108 -25 59 -27 69 -14 80 9 7 13 21 10 33 -3 12 0 38 6 58 8 28
8 44 0 63 -9 20 -9 25 1 25 8 0 23 11 36 23 24 27 22 37 -20 107 -15 25 -35
64 -45 88 l-17 43 27 28 27 28 -20 53 c-11 29 -27 60 -35 69 -8 9 -22 45 -31
81 -9 36 -25 80 -35 98 -11 17 -15 32 -10 32 10 0 50 -54 66 -90 l12 -25 12
30 c7 17 10 59 8 98 l-4 67 19 -37 c16 -30 18 -51 14 -112 -2 -42 -8 -85 -13
-96 -7 -18 -6 -19 11 -5 35 28 55 90 55 171 0 69 -3 80 -30 117 -29 40 -75 72
-103 72 -8 0 -27 16 -42 36 -50 66 -127 86 -235 63 -44 -9 -54 -9 -70 6 -11
10 -26 14 -38 10 -11 -3 -23 -1 -27 5 -7 11 -114 11 -210 0z m268 -89 c-33
-21 -64 -44 -67 -50 -4 -6 -17 -16 -28 -22 l-21 -12 21 27 c27 36 63 63 104
81 57 24 54 17 -9 -24z m277 12 c43 -28 3 -26 -42 2 -39 24 -40 26 -13 20 17
-3 41 -14 55 -22z m-412 -27 c-29 -24 -55 -42 -57 -40 -7 6 32 45 64 65 52 32
49 21 -7 -25z m-118 16 c-13 -9 -39 -30 -57 -46 -18 -15 -33 -24 -33 -18 0 16
79 82 98 81 13 0 12 -3 -8 -17z m-111 -15 c-2 -2 -26 -23 -53 -48 -40 -36 -46
-39 -31 -15 11 16 33 37 50 47 26 16 47 26 34 16z m615 -26 c49 -12 103 -64
117 -114 15 -58 7 -80 -14 -36 -42 86 -93 114 -204 113 -69 0 -79 2 -65 12 42
29 106 38 166 25z m-802 -361 c-9 -21 -18 -35 -20 -30 -3 9 25 70 33 70 2 0
-4 -18 -13 -40z m-82 -55 l-7 -70 -1 57 c-2 47 6 97 12 86 1 -2 -1 -34 -4 -73z
m1010 -558 c0 -8 -17 -19 -37 -26 -21 -7 -44 -15 -50 -17 -18 -8 -16 16 4 38
19 21 83 25 83 5z"/>
<path d="M2753 2680 c-54 -24 -55 -34 -3 -25 41 7 110 -9 110 -26 0 -5 -14 -9
-30 -9 -30 0 -100 -24 -100 -34 0 -2 15 0 32 5 52 15 61 12 55 -17 -6 -32 17
-43 42 -20 9 9 32 21 49 27 24 8 32 17 32 34 0 13 2 30 5 37 4 11 -11 19 -54
31 -76 21 -86 21 -138 -3z"/>
<path d="M2272 2615 c-41 -18 -56 -54 -42 -106 14 -52 19 -49 12 6 -3 35 0 50
13 65 23 26 35 25 35 -1 0 -17 5 -20 25 -17 14 3 25 2 25 -1 -1 -10 -30 -46
-30 -37 0 5 -7 3 -16 -4 -20 -17 -15 -65 8 -65 9 0 20 -4 24 -8 4 -4 16 -7 26
-7 13 0 18 8 18 30 0 17 -4 30 -10 30 -5 0 -10 22 -10 48 0 35 -5 54 -18 65
-22 20 -19 20 -60 2z"/>
<path d="M1970 2038 c-19 -30 -31 -64 -74 -203 l-16 -50 55 58 55 58 62 -64
c35 -35 84 -73 109 -85 57 -27 167 -52 234 -52 l50 0 -80 47 c-80 46 -187 145
-288 266 -56 66 -79 71 -107 25z"/>
</g>
</svg>
